<mxfile host="Electron" agent="Mozilla/5.0 (Windows NT 10.0; Win64; x64) AppleWebKit/537.36 (KHTML, like Gecko) draw.io/27.0.9 Chrome/134.0.6998.205 Electron/35.4.0 Safari/537.36" version="27.0.9">
  <diagram id="diagram_id" name="Page-1">
    <mxGraphModel dx="2052" dy="2287" grid="1" gridSize="10" guides="1" tooltips="1" connect="1" arrows="1" fold="1" page="1" pageScale="1" pageWidth="850" pageHeight="1100" math="0" shadow="0">
      <root>
        <mxCell id="0" />
        <mxCell id="1" parent="0" />
        <mxCell id="targetSystem" value="Target System" style="rounded=0;whiteSpace=wrap;html=1;" parent="1" vertex="1">
          <mxGeometry x="145" y="-284" width="160" height="80" as="geometry" />
        </mxCell>
        <mxCell id="holdingSystem" value="Holding System" style="rounded=0;whiteSpace=wrap;html=1;" parent="1" vertex="1">
          <mxGeometry x="520" y="-294" width="160" height="80" as="geometry" />
        </mxCell>
        <mxCell id="edge1" value="Sends/Pushes Messages" style="endArrow=classic;html=1;rounded=0;exitX=0.55;exitY=0.95;exitDx=0;exitDy=0;exitPerimeter=0;entryX=0.5;entryY=0;entryDx=0;entryDy=0;" parent="1" source="5g9o2YZ8xhWdxHga8xPc-1" target="5g9o2YZ8xhWdxHga8xPc-17" edge="1">
          <mxGeometry relative="1" as="geometry">
            <mxPoint x="165" y="-764" as="sourcePoint" />
            <mxPoint x="200" y="-834" as="targetPoint" />
          </mxGeometry>
        </mxCell>
        <mxCell id="edge2" value="Pulls Messages (using Consumer Group)" style="endArrow=classic;html=1;rounded=0;entryX=0.5;entryY=0;entryDx=0;entryDy=0;exitX=0.5;exitY=1;exitDx=0;exitDy=0;" parent="1" source="5g9o2YZ8xhWdxHga8xPc-18" target="5g9o2YZ8xhWdxHga8xPc-2" edge="1">
          <mxGeometry x="-0.4769" y="-27" relative="1" as="geometry">
            <mxPoint x="232.5" y="-604" as="sourcePoint" />
            <mxPoint x="324.375" y="-534" as="targetPoint" />
            <mxPoint as="offset" />
          </mxGeometry>
        </mxCell>
        <mxCell id="edge3" value="Successful Messages (Business Logic)" style="endArrow=classic;html=1;rounded=0;entryX=0.458;entryY=0.038;exitX=0.472;exitY=1.003;exitDx=0;exitDy=0;exitPerimeter=0;entryDx=0;entryDy=0;entryPerimeter=0;" parent="1" source="5g9o2YZ8xhWdxHga8xPc-2" target="targetSystem" edge="1">
          <mxGeometry relative="1" as="geometry">
            <Array as="points" />
            <mxPoint x="470" y="-514" as="sourcePoint" />
          </mxGeometry>
        </mxCell>
        <mxCell id="edge4" value="Errors / Held Trades" style="endArrow=classic;html=1;rounded=0;exitX=0.788;exitY=1.018;exitDx=0;exitDy=0;exitPerimeter=0;" parent="1" source="5g9o2YZ8xhWdxHga8xPc-2" target="holdingSystem" edge="1">
          <mxGeometry relative="1" as="geometry">
            <mxPoint x="455.7894736842104" y="-434" as="sourcePoint" />
          </mxGeometry>
        </mxCell>
        <mxCell id="5g9o2YZ8xhWdxHga8xPc-1" value="&lt;br&gt;(Data Provider) - allocate to topic&lt;div&gt;&lt;br&gt;&lt;/div&gt;" style="ellipse;shape=cloud;whiteSpace=wrap;html=1;" parent="1" vertex="1">
          <mxGeometry x="70" y="-1054" width="285" height="140" as="geometry" />
        </mxCell>
        <mxCell id="5g9o2YZ8xhWdxHga8xPc-2" value="Message Processor&lt;br&gt;(Application Service / Azure Function / Background Worker)" style="shape=process;whiteSpace=wrap;html=1;backgroundOutline=1;" parent="1" vertex="1">
          <mxGeometry x="110" y="-544" width="230" height="130" as="geometry" />
        </mxCell>
        <mxCell id="5g9o2YZ8xhWdxHga8xPc-16" value="Topics" style="swimlane;childLayout=stackLayout;resizeParent=1;resizeParentMax=0;horizontal=0;startSize=20;horizontalStack=0;html=1;" parent="1" vertex="1">
          <mxGeometry x="100" y="-834" width="230" height="160" as="geometry" />
        </mxCell>
        <mxCell id="5g9o2YZ8xhWdxHga8xPc-18" value="&lt;div&gt;CXL&lt;/div&gt;" style="swimlane;startSize=20;horizontal=0;html=1;" parent="5g9o2YZ8xhWdxHga8xPc-16" vertex="1">
          <mxGeometry x="20" width="210" height="160" as="geometry" />
        </mxCell>
        <mxCell id="5g9o2YZ8xhWdxHga8xPc-20" value="Azure Event Bus" style="text;html=1;align=center;verticalAlign=middle;whiteSpace=wrap;rounded=0;fontStyle=1" parent="5g9o2YZ8xhWdxHga8xPc-18" vertex="1">
          <mxGeometry x="70" y="70" width="120" height="30" as="geometry" />
        </mxCell>
        <mxCell id="5g9o2YZ8xhWdxHga8xPc-19" value="Endur" style="swimlane;startSize=20;horizontal=0;html=1;" parent="5g9o2YZ8xhWdxHga8xPc-18" vertex="1">
          <mxGeometry y="100" width="210" height="40" as="geometry" />
        </mxCell>
        <mxCell id="5g9o2YZ8xhWdxHga8xPc-22" style="edgeStyle=orthogonalEdgeStyle;rounded=0;orthogonalLoop=1;jettySize=auto;html=1;exitX=0.5;exitY=1;exitDx=0;exitDy=0;" parent="1" source="5g9o2YZ8xhWdxHga8xPc-17" edge="1">
          <mxGeometry relative="1" as="geometry">
            <mxPoint x="225" y="-773.8" as="targetPoint" />
          </mxGeometry>
        </mxCell>
        <mxCell id="5g9o2YZ8xhWdxHga8xPc-17" value="Tempest" style="swimlane;startSize=20;horizontal=0;html=1;" parent="1" vertex="1">
          <mxGeometry x="120" y="-834" width="210" height="60" as="geometry" />
        </mxCell>
      </root>
    </mxGraphModel>
  </diagram>
</mxfile>
